<svg version="1.1" xmlns="http://www.w3.org/2000/svg" viewBox="0 0 1928.6428397042414 566.4740756987892" width="3857.285679408483" height="1132.9481513975784">
  <!-- svg-source:excalidraw -->
  
  <defs>
    <style>
      @font-face {
        font-family: "Virgil";
        src: url("https://excalidraw.com/Virgil.woff2");
      }
      @font-face {
        font-family: "Cascadia";
        src: url("https://excalidraw.com/Cascadia.woff2");
      }
    </style>
  </defs>
  <rect x="0" y="0" width="1928.6428397042414" height="566.4740756987892" fill="#ffffff"></rect><g stroke-linecap="round" transform="translate(656.7781066894531 192.86117553710938) rotate(0 143.33334350585938 61.944427490234375)"><path d="M-0.78 -1.42 C81.43 1.33, 160.67 2.41, 285.19 -1.3 M-0.61 -0.47 C103.24 1.43, 207.3 1.19, 287.29 -0.69 M285.9 1.48 C285.97 39.45, 286.74 84.14, 288.3 122.56 M286.28 0.25 C286.24 39.42, 285.63 78.81, 285.92 124.59 M285.53 123.41 C200.12 126.2, 113.1 126.07, -1.17 123.74 M286.04 123.28 C217.31 122.41, 146.72 123.28, 0.3 124.1 M1.54 124.45 C0.45 89.95, 0.96 57.06, -1.95 1.64 M-0.55 123.61 C-1.36 97.11, -1.16 70.24, -0.97 -0.59" stroke="#000000" stroke-width="2" fill="none"></path></g><g transform="translate(758.1114501953125 242.80560302734375) rotate(0 42 12)"><text x="42" y="19" font-family="Cascadia, Segoe UI Emoji" font-size="20px" fill="#000000" text-anchor="middle" style="white-space: pre;" direction="ltr">setting</text></g><g transform="translate(604.8733302525111 387.9564623151507) rotate(0 42 12)"><text x="0" y="19" font-family="Cascadia, Segoe UI Emoji" font-size="20px" fill="#000000" text-anchor="start" style="white-space: pre;" direction="ltr">Command</text></g><g transform="translate(614.2225036621094 63.91673278808594) rotate(0 30.5 12)"><text x="0" y="19" font-family="Cascadia, Segoe UI Emoji" font-size="20px" fill="#000000" text-anchor="start" style="white-space: pre;" direction="ltr">Query</text></g><g transform="translate(741.8334132603236 139.65085274832586) rotate(0 24.5 12)"><text x="0" y="19" font-family="Cascadia, Segoe UI Emoji" font-size="20px" fill="#000000" text-anchor="start" style="white-space: pre;" direction="ltr">Read</text></g><g transform="translate(678.5081133161273 346.2460065569196) rotate(0 59.5 12)"><text x="0" y="19" font-family="Cascadia, Segoe UI Emoji" font-size="20px" fill="#000000" text-anchor="start" style="white-space: pre;" direction="ltr">Read/Write</text></g><g stroke-linecap="round" transform="translate(10 10) rotate(0 70.5 256)"><path d="M0.72 -1.36 C45.65 1.62, 94.22 0.46, 140.86 -0.63 M-0.72 0.54 C39.63 -0.12, 77.3 1.47, 140.2 -0.72 M141.55 -0.12 C142.21 125.31, 143.04 249.99, 141.22 511.82 M141.01 0.29 C141.96 148.34, 142.33 296.51, 140.87 512.39 M141.91 511.87 C98.81 512.69, 56.23 509.8, 0.78 510.5 M141.41 511.75 C105.85 511.75, 70.96 511.79, 0.72 511.78 M-0.76 512.44 C2.13 313.42, 1.54 113.29, 0.22 -0.18 M-0.24 512.26 C1.23 346.92, 1.85 181.67, 0.18 0.12" stroke="#000000" stroke-width="2" fill="none"></path></g><g transform="translate(32.5 254) rotate(0 48 12)"><text x="48" y="19" font-family="Cascadia, Segoe UI Emoji" font-size="20px" fill="#000000" text-anchor="middle" style="white-space: pre;" direction="ltr">Frontend</text></g><g stroke-linecap="round" transform="translate(368.00006103515625 12.22216796875) rotate(0 70.27777099609375 251.9444580078125)"><path d="M-1.73 0.25 C35.14 -1.47, 68.91 1.94, 141.21 1.42 M-0.57 0.73 C48.27 -1.74, 96.58 -0.26, 141.26 -0.99 M139.81 -0.71 C141.24 143.71, 142.55 286.44, 140.43 503.82 M140.76 -0.26 C139.74 131.03, 139.71 261.56, 140.74 503.72 M141.8 503.92 C90.46 504.7, 37.09 505.24, 0.27 505.54 M140.56 503.98 C93.53 505.92, 45.74 505.06, -0.97 504.2 M0.1 503.6 C-1.11 384.67, -0.67 267.22, -0.32 -0.46 M0.08 503.87 C-0.89 375.62, -0.7 247.01, 0.13 -0.28" stroke="#000000" stroke-width="2" fill="none"></path></g><g transform="translate(378.77783203125 252.1666259765625) rotate(0 59.5 12)"><text x="59.5" y="19" font-family="Cascadia, Segoe UI Emoji" font-size="20px" fill="#000000" text-anchor="middle" style="white-space: pre;" direction="ltr">Tauri Core</text></g><g stroke-linecap="round"><g transform="translate(149.83334350585938 201.6112060546875) rotate(0 108.34451007056293 -0.5464973253983203)"><path d="M0.84 -1.6 C49.68 1.86, 99.27 -0.03, 217.18 0.12 M-0.49 -0.46 C77.37 -0.59, 155.43 0.47, 216.27 0.13" stroke="#000000" stroke-width="2" fill="none"></path></g><g transform="translate(149.83334350585938 201.6112060546875) rotate(0 108.34451007056293 -0.5464973253983203)"><path d="M189.04 8.56 C194.69 9.32, 201.11 4.94, 217.5 0.91 M187.52 9.86 C197.63 5.82, 207.93 3.57, 216.46 0.92" stroke="#000000" stroke-width="2" fill="none"></path></g><g transform="translate(149.83334350585938 201.6112060546875) rotate(0 108.34451007056293 -0.5464973253983203)"><path d="M189.04 -11.96 C194.53 -6.48, 200.95 -6.15, 217.5 0.91 M187.52 -10.66 C197.55 -7.3, 207.85 -2.15, 216.46 0.92" stroke="#000000" stroke-width="2" fill="none"></path></g></g><g transform="translate(200.05557250976562 171.00006103515625) rotate(0 65.5 12)"><text x="0" y="19" font-family="Cascadia, Segoe UI Emoji" font-size="20px" fill="#000000" text-anchor="start" style="white-space: pre;" direction="ltr">IPC Request</text></g><g stroke-linecap="round"><g transform="translate(368.2778015136719 301.05560302734375) rotate(0 -107.55041574672549 -0.7870146050585731)"><path d="M0.59 0.51 C-46.87 2.51, -90.47 -0.53, -215.27 -1.22 M0.27 -0.42 C-47.47 -2.96, -96.51 -3.18, -215.69 -2.25" stroke="#000000" stroke-width="2" fill="none"></path></g><g transform="translate(368.2778015136719 301.05560302734375) rotate(0 -107.55041574672549 -0.7870146050585731)"><path d="M-186.88 -12.08 C-195.32 -8.33, -199.34 -8.96, -215.37 -0.47 M-187.25 -13.15 C-193.02 -11.41, -200.31 -8.63, -215.84 -1.65" stroke="#000000" stroke-width="2" fill="none"></path></g><g transform="translate(368.2778015136719 301.05560302734375) rotate(0 -107.55041574672549 -0.7870146050585731)"><path d="M-186.77 8.44 C-195.23 7.88, -199.28 2.94, -215.37 -0.47 M-187.13 7.37 C-193 4.52, -200.32 2.72, -215.84 -1.65" stroke="#000000" stroke-width="2" fill="none"></path></g></g><g transform="translate(194.33328247070312 271.83343505859375) rotate(0 71.5 12)"><text x="0" y="19" font-family="Cascadia, Segoe UI Emoji" font-size="20px" fill="#000000" text-anchor="start" style="white-space: pre;" direction="ltr">IPC Response</text></g><g stroke-linecap="round"><g transform="translate(510.3054203970271 416.3787769392836) rotate(0 145.47567034861817 -50.19152934029438)"><path d="M-0.1 -0.26 C95.63 -1.36, 193.34 -2.48, 286.17 0.61 M-0.27 -0.66 C69.55 -0.69, 138.28 -1.21, 286.88 -0.05 M286.78 -0.67 C288.34 -0.93, 289.05 -1.15, 290.25 -1.09 M286.93 -0.47 C288.22 -0.8, 289.64 -0.88, 290.32 -1.18 M290.44 -0.5 C290.43 -33.54, 290.05 -68.29, 288.85 -100.49 M291.16 -2.13 C291.21 -33.67, 291.53 -66.66, 289.9 -101" stroke="#a61e4d" stroke-width="2" fill="none"></path></g><g transform="translate(510.3054203970271 416.3787769392836) rotate(0 145.47567034861817 -50.19152934029438)"><path d="M300.95 -73.5 C296.72 -83.05, 295.17 -93.65, 288.82 -99.58 M300.72 -74.03 C298.75 -79.12, 295.52 -86.36, 289.75 -100.46" stroke="#a61e4d" stroke-width="2" fill="none"></path></g><g transform="translate(510.3054203970271 416.3787769392836) rotate(0 145.47567034861817 -50.19152934029438)"><path d="M280.44 -72.83 C283.07 -82.67, 288.38 -93.49, 288.82 -99.58 M280.21 -73.36 C283.18 -78.72, 284.89 -86.12, 289.75 -100.46" stroke="#a61e4d" stroke-width="2" fill="none"></path></g></g><g transform="translate(868.2617885044642 387.89678083147305) rotate(0 71.5 12)"><text x="0" y="19" font-family="Cascadia, Segoe UI Emoji" font-size="20px" fill="#000000" text-anchor="start" style="white-space: pre;" direction="ltr">Trigger Once</text></g><g stroke-linecap="round" transform="translate(1094.7540370396207 363.40493338448664) rotate(0 69.5 59.5)"><path d="M35.65 6.61 C43.94 1.77, 57.03 0.38, 68.01 0.34 C78.98 0.29, 91.83 2.18, 101.51 6.34 C111.2 10.49, 120.05 17.79, 126.14 25.26 C132.23 32.74, 136.5 42.06, 138.06 51.21 C139.61 60.36, 139.18 71.54, 135.46 80.15 C131.73 88.76, 123.67 96.58, 115.7 102.87 C107.72 109.16, 98.05 115.33, 87.61 117.91 C77.16 120.49, 63.67 120.67, 53.02 118.34 C42.37 116.01, 31.85 110.21, 23.72 103.94 C15.59 97.68, 8.06 89.1, 4.22 80.76 C0.38 72.42, -0.69 63.05, 0.68 53.89 C2.05 44.72, 5.32 34.19, 12.43 25.76 C19.54 17.34, 36.73 7.01, 43.34 3.34 C49.94 -0.33, 51.54 2.79, 52.04 3.76 M64.89 -0.57 C75.27 -2.2, 88.3 0.87, 97.95 4.57 C107.61 8.28, 116.01 14.2, 122.83 21.65 C129.65 29.1, 136.71 39.98, 138.89 49.28 C141.06 58.59, 139.37 68.74, 135.89 77.48 C132.4 86.21, 125.48 95.26, 117.98 101.7 C110.48 108.15, 101.01 113.3, 90.87 116.15 C80.73 119, 67.94 120.33, 57.15 118.78 C46.36 117.22, 34.77 112.68, 26.12 106.83 C17.46 100.98, 9.45 92.15, 5.22 83.69 C1 75.23, -0.04 64.92, 0.76 56.05 C1.56 47.19, 4.78 38.21, 10.02 30.48 C15.27 22.76, 23.02 14.64, 32.21 9.71 C41.4 4.79, 59.84 2.59, 65.18 0.95 C70.53 -0.68, 64.15 -0.8, 64.27 -0.1" stroke="#000000" stroke-width="2" fill="none"></path></g><g transform="translate(1104.7540370396207 410.90493338448664) rotate(0 59.5 12)"><text x="59.5" y="19" font-family="Cascadia, Segoe UI Emoji" font-size="20px" fill="#000000" text-anchor="middle" style="white-space: pre;" direction="ltr">Controller</text></g><g stroke-linecap="round" transform="translate(1362.5316641671318 187.5951690673827) rotate(0 278.0555877685548 65.90278625488287)"><path d="M-0.06 0.5 C125.69 1.2, 249.95 0.69, 555.71 0.01 M-0.17 -0.12 C118.36 1.46, 237.49 2.04, 555.75 0.23 M556.13 -1.51 C554.59 48.14, 555.15 101.7, 554.3 131.05 M556.43 0.33 C557.11 49.62, 556.82 98.87, 556.09 131.02 M556.61 131.3 C337.75 131.36, 118.56 130.64, 0.75 132.56 M556.5 131.6 C419.63 130.63, 282.34 130.52, -0.33 132.08 M-0.73 131.58 C-2.54 88.7, 0.88 46.35, -0.9 1.92 M-0.25 131.64 C0.25 95.07, -0.04 57.95, 0.41 -0.65" stroke="#000000" stroke-width="2" fill="none"></path></g><g transform="translate(1378.8650381905693 192.92852020263672) rotate(0 71.5 12)"><text x="0" y="19" font-family="Cascadia, Segoe UI Emoji" font-size="20px" fill="#000000" text-anchor="start" style="white-space: pre;" direction="ltr">runtime data</text></g><g stroke-linecap="round" transform="translate(1393.642809186663 227.31748962402344) rotate(0 86 35)"><path d="M0.81 0.16 C40.82 -2.2, 84.57 -1.05, 170.27 0.65 M-0.83 -0.59 C38.75 1.4, 76.12 1.1, 172.79 -0.42 M171.03 -1.86 C171.6 26.4, 170.2 48.65, 173.43 70.25 M172.83 0.64 C172.76 18.4, 172.2 34.16, 172.93 69.57 M172.11 69.81 C121.38 66.93, 76.34 70.82, -1.08 70.43 M172.64 69.82 C128.2 68.63, 85.02 69.77, 0.32 70.83 M-1.44 70.62 C2.23 51.51, -0.64 30.95, -0.42 -0.19 M0.12 70.04 C0 55.13, 0.58 40.25, -0.42 0.63" stroke="#000000" stroke-width="2" fill="none"></path></g><g transform="translate(1420.142809186663 250.31748962402344) rotate(0 59.5 12)"><text x="59.5" y="19" font-family="Cascadia, Segoe UI Emoji" font-size="20px" fill="#000000" text-anchor="middle" style="white-space: pre;" direction="ltr">video data</text></g><g stroke-linecap="round" transform="translate(1598.6427481515066 227.09524536132812) rotate(0 77 34.5)"><path d="M-1.96 -1.12 C54.89 -0.09, 110.03 0.52, 152.48 -0.87 M0.24 0.86 C40.54 1.48, 83.66 0.49, 154.53 0.01 M153.59 1.7 C151.86 14.72, 155.1 31.21, 152.99 69.63 M154.54 0.93 C154.56 22.17, 155.5 45.48, 153.83 69.63 M152.14 67.01 C119.36 70.75, 79.9 69.28, -0.99 70.97 M153.27 68.54 C115.07 69.4, 78.12 69.55, -0.07 68.64 M1.98 71 C-0.4 50.98, 0.08 28.93, -1.84 -0.5 M-0.17 68.69 C0.32 48.76, -0.51 30.46, 0.77 0.69" stroke="#000000" stroke-width="2" fill="none"></path></g><g transform="translate(1627.6427481515066 249.59524536132812) rotate(0 48 12)"><text x="48" y="19" font-family="Cascadia, Segoe UI Emoji" font-size="20px" fill="#000000" text-anchor="middle" style="white-space: pre;" direction="ltr">daq data</text></g><g stroke-linecap="round" transform="translate(1784.5872977120525 228.90077209472656) rotate(0 49 32)"><path d="M-0.99 0.03 C28.43 1.19, 58.81 -0.32, 97.38 -1.67 M-0.89 0.57 C24.41 -1.27, 47.76 -0.83, 97.24 -0.48 M96.19 -0.76 C99.3 13.51, 96.86 27.15, 98.65 65.67 M97.98 -0.79 C99.27 22.89, 98.18 47.26, 97.37 64.06 M99.87 65.9 C68.47 63.45, 40.1 64.99, -1.05 65.28 M97.16 64.68 C70.69 64.38, 42.66 63.19, -0.11 63.28 M-0.9 65.92 C-1.05 42.61, -2.48 21.11, -0.32 0.24 M0.41 63.35 C-0.31 45.2, 0.88 25.83, 0.63 0.73" stroke="#000000" stroke-width="2" fill="none"></path></g><g transform="translate(1797.5872977120525 248.90077209472656) rotate(0 36 12)"><text x="36" y="19" font-family="Cascadia, Segoe UI Emoji" font-size="20px" fill="#000000" text-anchor="middle" style="white-space: pre;" direction="ltr">result</text></g><g stroke-linecap="round"><g transform="translate(1234.9006558080177 420.40945527245935) rotate(0 279.7949562493866 -50.33327531436976)"><path d="M-0.18 -0.24 C182.2 1.32, 364.31 0.7, 559.72 -1.94 M559.63 -0.96 C559.98 -33.52, 559.96 -63.19, 556.12 -101.27" stroke="#d9480f" stroke-width="2.5" fill="none" stroke-dasharray="8 10"></path></g><g transform="translate(1234.9006558080177 420.40945527245935) rotate(0 279.7949562493866 -50.33327531436976)"><path d="M568.08 -74.55 C564.52 -82.67, 560.25 -91.67, 557.51 -101.63" stroke="#d9480f" stroke-width="2.5" fill="none"></path></g><g transform="translate(1234.9006558080177 420.40945527245935) rotate(0 279.7949562493866 -50.33327531436976)"><path d="M547.62 -72.96 C550.73 -81.43, 553.12 -90.96, 557.51 -101.63" stroke="#d9480f" stroke-width="2.5" fill="none"></path></g></g><g stroke-linecap="round"><g transform="translate(510.93504828829725 95.39015229849991) rotate(0 566.3433979888687 44.29589350004164)"><path d="M-0.36 -0.75 C326.15 1.81, 652.6 3.37, 1132.87 5.52 M0.29 0.27 C318.76 -2.05, 636.67 -1.27, 1132.99 4.65 M1132.44 3.95 C1132.1 26.58, 1133.98 51.38, 1132.34 89.54 M1132.63 4.56 C1133.31 36.55, 1133.16 70.41, 1132.17 88.7" stroke="#1864ab" stroke-width="2" fill="none"></path></g><g transform="translate(510.93504828829725 95.39015229849991) rotate(0 566.3433979888687 44.29589350004164)"><path d="M1121.94 58.3 C1125.36 68.24, 1128.8 76.79, 1132.41 90.14 M1123.57 60.85 C1125.84 68.74, 1126.93 75.25, 1132.7 87.98" stroke="#1864ab" stroke-width="2" fill="none"></path></g><g transform="translate(510.93504828829725 95.39015229849991) rotate(0 566.3433979888687 44.29589350004164)"><path d="M1142.45 58.98 C1139.97 68.71, 1137.51 77.06, 1132.41 90.14 M1144.08 61.53 C1140.59 69.4, 1135.91 75.71, 1132.7 87.98" stroke="#1864ab" stroke-width="2" fill="none"></path></g></g><g stroke-linecap="round"><g transform="translate(795.5277099609375 95.67865208217074) rotate(0 -0.7400251403450966 49.95625003214394)"><path d="M-0.63 0.95 C-0.27 33.24, 0.3 64.22, -1.82 100.28 M0.34 -0.37 C-0.93 21.77, -0.46 42.43, 0.02 98.99" stroke="#1864ab" stroke-width="2" fill="none"></path></g><g transform="translate(795.5277099609375 95.67865208217074) rotate(0 -0.7400251403450966 49.95625003214394)"><path d="M-11.13 71.85 C-6.92 80.41, -2.59 87.71, -1.11 100.56 M-10.16 70.52 C-9.13 77.76, -6.28 83.48, 0.73 99.27" stroke="#1864ab" stroke-width="2" fill="none"></path></g><g transform="translate(795.5277099609375 95.67865208217074) rotate(0 -0.7400251403450966 49.95625003214394)"><path d="M9.39 71.66 C6.72 80.38, 4.17 87.74, -1.11 100.56 M10.36 70.34 C7.05 77.54, 5.55 83.3, 0.73 99.27" stroke="#1864ab" stroke-width="2" fill="none"></path></g></g><g transform="translate(1586.8568921770361 131.47619301932184) rotate(0 24.5 12)"><text x="0" y="19" font-family="Cascadia, Segoe UI Emoji" font-size="20px" fill="#000000" text-anchor="start" style="white-space: pre;" direction="ltr">Read</text></g><g stroke-linecap="round"><g transform="translate(1157.0222981722216 361.3728815946432) rotate(0 -108.11923982815017 -55.57548880939129)"><path d="M-1.9 -0.16 C-1.9 -31.13, -0.52 -63.82, -0.04 -108.29 M-0.05 -0.95 C-1.48 -40.62, -1.78 -82.9, -1.63 -108.21 M-2.76 -109.41 C-49.98 -108.57, -96.04 -108.11, -216.2 -109.43 M-2.19 -107.33 C-79.98 -111.02, -159.18 -111.86, -214.23 -110.12" stroke="#087f5b" stroke-width="2" fill="none"></path></g><g transform="translate(1157.0222981722216 361.3728815946432) rotate(0 -108.11923982815017 -55.57548880939129)"><path d="M-188.1 -120.98 C-194.84 -117.49, -201.09 -115.89, -212.57 -110.66 M-186.25 -121.77 C-197 -116.38, -207.36 -113.39, -214.17 -110.58" stroke="#087f5b" stroke-width="2" fill="none"></path></g><g transform="translate(1157.0222981722216 361.3728815946432) rotate(0 -108.11923982815017 -55.57548880939129)"><path d="M-187.78 -100.46 C-194.76 -102.91, -201.11 -107.25, -212.57 -110.66 M-185.93 -101.25 C-196.93 -103.71, -207.42 -108.56, -214.17 -110.58" stroke="#087f5b" stroke-width="2" fill="none"></path></g></g><g transform="translate(1417.432693481445 393.75786699567516) rotate(0 53.5 12)"><text x="0" y="19" font-family="Cascadia, Segoe UI Emoji" font-size="20px" fill="#000000" text-anchor="start" style="white-space: pre;" direction="ltr">Reconcile</text></g><g transform="translate(1731.7183205740785 366.317419869559) rotate(0 30.5 12)"><text x="0" y="19" font-family="Cascadia, Segoe UI Emoji" font-size="20px" fill="#000000" text-anchor="start" style="white-space: pre;" direction="ltr">Write</text></g><g stroke-linecap="round"><g transform="translate(1795.2262595040456 420.6071472167969) rotate(0 -316.4442047888879 68.6530603438299)"><path d="M-0.02 1.44 C-1.76 34.37, -0.16 66.61, -0.31 135.09 M1.44 134.24 C-189.02 136.81, -378.62 136.1, -631.65 133.75 M-633.12 133.88 C-633.27 110.33, -633.6 86.41, -634.33 62.77" stroke="#d9480f" stroke-width="2.5" fill="none" stroke-dasharray="1.5 8"></path></g><g transform="translate(1795.2262595040456 420.6071472167969) rotate(0 -316.4442047888879 68.6530603438299)"><path d="M-623.35 92.12 C-626.49 85.98, -627.7 79.13, -635.34 63.14" stroke="#d9480f" stroke-width="2.5" fill="none" stroke-dasharray="1.5 6"></path></g><g transform="translate(1795.2262595040456 420.6071472167969) rotate(0 -316.4442047888879 68.6530603438299)"><path d="M-643.87 92.66 C-642.07 86.37, -638.35 79.39, -635.34 63.14" stroke="#d9480f" stroke-width="2.5" fill="none" stroke-dasharray="1.5 6"></path></g></g><g transform="translate(1697.8649618966238 471.9404296875) rotate(0 48 12)"><text x="0" y="19" font-family="Cascadia, Segoe UI Emoji" font-size="20px" fill="#000000" text-anchor="start" style="white-space: pre;" direction="ltr">Succeed?</text></g><g stroke-linecap="round"><g transform="translate(801.1982901436943 417.82936096191406) rotate(0 144.78965745045286 1.354916813827117)"><path d="M-0.55 0.11 C58.78 3.08, 117.01 1.8, 290.13 1.65 M-0.42 0.37 C95.84 2.57, 190.96 3.16, 289.49 2.06" stroke="#087f5b" stroke-width="2" fill="none"></path></g><g transform="translate(801.1982901436943 417.82936096191406) rotate(0 144.78965745045286 1.354916813827117)"><path d="M260.62 12.64 C267.75 12.29, 273.31 8.06, 290.75 2.15 M260.8 12.99 C271.26 10.03, 280.22 6.68, 289.9 2.7" stroke="#087f5b" stroke-width="2" fill="none"></path></g><g transform="translate(801.1982901436943 417.82936096191406) rotate(0 144.78965745045286 1.354916813827117)"><path d="M260.5 -7.88 C267.49 -4.09, 273.08 -4.19, 290.75 2.15 M260.68 -7.53 C271.24 -3.73, 280.24 -0.31, 289.9 2.7" stroke="#087f5b" stroke-width="2" fill="none"></path></g></g><g stroke-linecap="round"><g transform="translate(1155.642824445452 252.55157470703125) rotate(0 104.10829626246607 0.2752019050265062)"><path d="M-0.47 -0.77 C63.66 -1.14, 126.76 -2.14, 208.68 1.72 M-0.34 0.63 C74.85 1.25, 151.29 1.14, 207 0.91" stroke="#087f5b" stroke-width="2" fill="none"></path></g><g transform="translate(1155.642824445452 252.55157470703125) rotate(0 104.10829626246607 0.2752019050265062)"><path d="M178.31 10.38 C187.9 8.34, 196.35 3.83, 208.17 2.06 M178.45 11.97 C188.18 7.36, 199.24 3.19, 206.28 1.15" stroke="#087f5b" stroke-width="2" fill="none"></path></g><g transform="translate(1155.642824445452 252.55157470703125) rotate(0 104.10829626246607 0.2752019050265062)"><path d="M178.25 -10.14 C187.92 -5.93, 196.39 -4.2, 208.17 2.06 M178.39 -8.56 C188.01 -5.67, 199.1 -2.36, 206.28 1.15" stroke="#087f5b" stroke-width="2" fill="none"></path></g></g><g transform="translate(996.3370993477959 224.7182159423828) rotate(0 24.5 12)"><text x="0" y="19" font-family="Cascadia, Segoe UI Emoji" font-size="20px" fill="#000000" text-anchor="start" style="white-space: pre;" direction="ltr">Read</text></g><g transform="translate(1267.809541974749 226.24600219726562) rotate(0 24.5 12)"><text x="0" y="19" font-family="Cascadia, Segoe UI Emoji" font-size="20px" fill="#000000" text-anchor="start" style="white-space: pre;" direction="ltr">Read</text></g><g transform="translate(1002.1428244454521 305.13489532470703) rotate(0 77 12)"><text x="0" y="19" font-family="Cascadia, Segoe UI Emoji" font-size="20px" fill="#000000" text-anchor="start" style="white-space: pre;" direction="ltr">Make decision</text></g><g transform="translate(1403.4482443673273 529.7180633544922) rotate(0 71.5 12)"><text x="0" y="19" font-family="Cascadia, Segoe UI Emoji" font-size="20px" fill="#000000" text-anchor="start" style="white-space: pre;" direction="ltr">Trigger Once</text></g></svg>